<?xml version="1.0" encoding="utf-8"?>
<svg xmlns="http://www.w3.org/2000/svg" xmlns:xlink="http://www.w3.org/1999/xlink" style="margin: auto; background: rgba(0, 0, 0, 0) none repeat scroll 0% 0%; display: block; shape-rendering: auto;" width="450px" height="450px" viewBox="0 0 100 100" preserveAspectRatio="xMidYMid">
 <g transform="translate(50 50)">  <g transform="translate(-19 -19) scale(0.6)"> <g>
<animateTransform attributeName="transform" type="rotate" values="0;36" keyTimes="0;1" dur="0.5555555555555556s" begin="0s" repeatCount="indefinite"></animateTransform><path d="M30.352261324091614 21.159873168666497 L37.42332913595709 28.230940980531972 L28.230940980531976 37.42332913595708 L21.1598731686665 30.35226132409161 A37 37 0 0 1 12.11803383997819 34.95930857229793 L12.11803383997819 34.95930857229793 L13.6823784903805 44.8361919782493 L0.8424300626437137 46.86984002377231 L-0.7219145877585958 36.99295661782093 A37 37 0 0 1 -10.744870694185497 35.40547632450711 L-10.744870694185497 35.40547632450711 L-15.284775691580965 44.31554156639079 L-26.867860506029743 38.413665069776684 L-22.327955508634275 29.503599827893005 A37 37 0 0 1 -29.503599827893 22.32795550863428 L-29.503599827893 22.32795550863428 L-38.413665069776684 26.86786050602975 L-44.315541566390785 15.284775691580974 L-35.405476324507106 10.744870694185504 A37 37 0 0 1 -36.99295661782093 0.7219145877586027 L-36.99295661782093 0.7219145877586027 L-46.86984002377231 -0.8424300626437048 L-44.8361919782493 -13.682378490380492 L-34.95930857229793 -12.118033839978184 A37 37 0 0 1 -30.352261324091614 -21.159873168666493 L-30.352261324091614 -21.159873168666493 L-37.42332913595709 -28.23094098053197 L-28.23094098053196 -37.42332913595709 L-21.159873168666486 -30.352261324091618 A37 37 0 0 1 -12.11803383997821 -34.95930857229792 L-12.11803383997821 -34.95930857229792 L-13.68237849038052 -44.8361919782493 L-0.8424300626437029 -46.86984002377231 L0.7219145877586077 -36.99295661782093 A37 37 0 0 1 10.744870694185478 -35.40547632450712 L10.744870694185478 -35.40547632450712 L15.284775691580943 -44.3155415663908 L26.86786050602975 -38.41366506977668 L22.327955508634286 -29.503599827892998 A37 37 0 0 1 29.50359982789299 -22.327955508634297 L29.50359982789299 -22.327955508634297 L38.41366506977667 -26.867860506029764 L44.31554156639079 -15.284775691580961 L35.40547632450711 -10.744870694185492 A37 37 0 0 1 36.99295661782093 -0.7219145877586236 L36.99295661782093 -0.7219145877586236 L46.86984002377231 0.8424300626436828 L44.8361919782493 13.682378490380502 L34.95930857229793 12.118033839978196 A37 37 0 0 1 30.35226132409163 21.159873168666476 M0 -21A21 21 0 1 0 0 21 A21 21 0 1 0 0 -21" fill="#5e6fa3"></path></g></g> <g transform="translate(19 19) scale(0.6)"> <g>
<animateTransform attributeName="transform" type="rotate" values="36;0" keyTimes="0;1" dur="0.5555555555555556s" begin="-0.2777777777777778s" repeatCount="indefinite"></animateTransform><path d="M-30.352261324091614 -21.159873168666493 L-37.42332913595709 -28.23094098053197 L-28.23094098053196 -37.42332913595709 L-21.159873168666486 -30.352261324091618 A37 37 0 0 1 -12.11803383997821 -34.95930857229792 L-12.11803383997821 -34.95930857229792 L-13.68237849038052 -44.8361919782493 L-0.8424300626437029 -46.86984002377231 L0.7219145877586077 -36.99295661782093 A37 37 0 0 1 10.744870694185478 -35.40547632450712 L10.744870694185478 -35.40547632450712 L15.284775691580943 -44.3155415663908 L26.86786050602975 -38.41366506977668 L22.327955508634286 -29.503599827892998 A37 37 0 0 1 29.50359982789299 -22.327955508634297 L29.50359982789299 -22.327955508634297 L38.41366506977667 -26.867860506029764 L44.31554156639079 -15.284775691580961 L35.40547632450711 -10.744870694185492 A37 37 0 0 1 36.99295661782093 -0.7219145877586236 L36.99295661782093 -0.7219145877586236 L46.86984002377231 0.8424300626436828 L44.8361919782493 13.682378490380502 L34.95930857229793 12.118033839978196 A37 37 0 0 1 30.35226132409163 21.159873168666476 L30.35226132409163 21.159873168666476 L37.423329135957104 28.230940980531948 L28.230940980531972 37.42332913595709 L21.159873168666493 30.352261324091614 A37 37 0 0 1 12.118033839978214 34.95930857229792 L12.118033839978214 34.95930857229792 L13.682378490380525 44.8361919782493 L0.8424300626437086 46.86984002377231 L-0.7219145877586032 36.99295661782093 A37 37 0 0 1 -10.744870694185504 35.405476324507106 L-10.744870694185504 35.405476324507106 L-15.284775691580977 44.315541566390785 L-26.86786050602978 38.413665069776656 L-22.327955508634307 29.50359982789298 A37 37 0 0 1 -29.503599827893005 22.327955508634275 L-29.503599827893005 22.327955508634275 L-38.413665069776684 26.867860506029736 L-44.3155415663908 15.284775691580927 L-35.40547632450712 10.744870694185465 A37 37 0 0 1 -36.99295661782093 0.7219145877585953 L-36.99295661782093 0.7219145877585953 L-46.869840023772305 -0.8424300626437184 L-44.836191978249296 -13.682378490380536 L-34.95930857229792 -12.118033839978223 A37 37 0 0 1 -30.35226132409161 -21.1598731686665 M0 -21A21 21 0 1 0 0 21 A21 21 0 1 0 0 -21" fill="rgba(226, 179, 197, 0.9122257552608367)"></path></g></g></g>
<!-- [ldio] generated by https://loading.io/ --></svg>